# xmcd CD database file
#
# Track frame offsets:
#	150
#	22832
#	41092
#	65997
#	86820
#	107982
#	127552
#	146737
#	168330
#	190907
#	210487
#	235357
#	249140
#	264307
#	275742
#	305530
#
# Disc length: 4375 seconds
#
# Revision: 1
# Processed by: cddbd v1.5.1PL2 Copyright (c) Steve Scherf et al.
# Submitted via: CDex 1.51
#
DISCID=e3111510
DTITLE=Kenny G - The Best Of Kenny G
DYEAR=1900
DGENRE=Jazz
TTITLE0=Forever In Love
TTITLE1=Theme From "Dying Young"
TTITLE2=Going Home
TTITLE3=Uncle AL
TTITLE4=Jasmine Flower
TTITLE5=We've Saved The Best For Last
TTITLE6=Don't Make Me Wait For Love (With Michael Bolton)
TTITLE7=By The Time This Night Is Over (With Peabo Bryson)
TTITLE8=Even If My Heart Would Break (With Aaron Neville)
TTITLE9=The Joy Of Life
TTITLE10=Silhouette
TTITLE11=Winter Worderland
TTITLE12=Spring Breeze
TTITLE13=Miracle
TTITLE14=Sentimental
TTITLE15=Songbird
EXTD=
EXTT0=
EXTT1=
EXTT2=
EXTT3=
EXTT4=
EXTT5=
EXTT6=
EXTT7=
EXTT8=
EXTT9=
EXTT10=
EXTT11=
EXTT12=
EXTT13=
EXTT14=
EXTT15=
PLAYORDER=
